# xmcd
#
# Track frame offsets:
#	150
#	19174
#	29738
#	52371
#	70754
#	89731
#	110300
#	134489
#	156064
#	183370
#	198801
#	220648
#	242707
#	261048
#	276345
#
# Disc length: 3998 seconds
#
# Revision: 1
# Processed by: cddbd v1.4PL0 Copyright (c) Steve Scherf et al.
# Submitted via: audiograbber 1.81.03
#
DISCID=df0f9c0f
DTITLE=Various Artist - Honed On The Range, Volume 5: Texas Troubadors
DYEAR=1900
DGENRE=Country
TTITLE0=The Groobies - Wide Open Spaces
TTITLE1=Willie Nelson - I Never Cared For You
TTITLE2=Robert Earl Keen, Jr. - The Road Goes On Forever
TTITLE3=Pat Green - Songs About Texas
TTITLE4=Joe Ely - All Just To Get To You
TTITLE5=Alejandro Escovedo - Ballad Of The Sun And The Moon
TTITLE6=Patty Griffin - Mil Besos
TTITLE7=Augie Meyers - 9 Million Pictures
TTITLE8=Gary Clark, Jr. - Have To Let You Go
TTITLE9=Mingo Saldivar - Old Chicano
TTITLE10=Ray Wylie Hubbard - Conversation With The Devil
TTITLE11=Butch Hancock - You Coulda Walked Around The World
TTITLE12=Billy Joe Shaver - Day By Day
TTITLE13=Jimmie Dale Gilmore - Tonight I Think I'm Gonna Go Downtown
TTITLE14=Bruce Robison - What Would Willie Do?
EXTD=Proudly Presented by Texas Monthly
EXTT0=
EXTT1=
EXTT2=
EXTT3=
EXTT4=
EXTT5=
EXTT6=
EXTT7=
EXTT8=
EXTT9=
EXTT10=
EXTT11=
EXTT12=
EXTT13=
EXTT14=
PLAYORDER=
